# Blender v2.76 (sub 0) OBJ File: ''
# www.blender.org
mtllib Roll_RightArm.mtl
o RightArm_Arms.001
v -0.450323 -0.078558 -0.152667
v -0.752052 0.134892 -0.116364
v -0.422743 0.192958 -0.163039
v -0.712966 -0.086776 -0.116364
v -0.446400 0.310705 0.159633
v -0.449813 0.197646 0.300959
v 0.041373 0.166873 0.142108
v 0.166800 -0.079994 0.176889
v -0.030408 -0.230087 0.253675
v -0.477753 -0.077418 0.311467
v -0.437589 0.305703 -0.117692
v 0.015089 0.158248 -0.084266
v 0.165596 -0.083348 -0.145138
v -0.051853 -0.198763 -0.204528
v -0.436940 0.187665 -0.268041
v -0.384524 -0.124938 -0.273961
v -0.803773 -0.058816 0.140409
v -0.853143 -0.101069 -0.151412
v -0.849131 0.089860 -0.156591
v -0.799722 0.133849 0.135182
v -0.454510 -0.075129 0.170099
v -0.420105 0.161579 0.159633
vt 0.396531 0.580125
vt 0.392625 0.607469
vt 0.392625 0.576219
vt 0.396531 0.607469
vt 0.142625 0.502000
vt 0.169969 0.502000
vt 0.166063 0.615281
vt 0.216844 0.650438
vt 0.255906 0.615281
vt 0.244188 0.502000
vt 0.228563 0.767625
vt 0.255906 0.658250
vt 0.177781 0.806688
vt 0.138719 0.763719
vt 0.642625 0.837938
vt 0.697312 0.818406
vt 0.681687 0.837938
vt 0.627000 0.818406
vt 0.224656 0.658250
vt 0.154344 0.658250
vt 0.698180 0.773589
vt 0.698180 0.818600
vt 0.627819 0.818600
vt 0.142996 0.657135
vt 0.149876 0.771963
vt 0.203857 0.779445
vt 0.388719 0.595750
vt 0.388719 0.603563
vt 0.392625 0.591844
vt 0.396531 0.591844
vt 0.627819 0.773589
vt 0.247985 0.655705
vn -0.131500 -0.722500 -0.678700
vn 0.455500 0.149800 -0.877500
vn -0.173900 0.898800 -0.402500
vn 0.058400 -0.752800 -0.655700
vn -0.254400 0.917200 0.306500
vn -0.470600 0.348600 0.810600
vn 0.568600 0.780700 0.259300
vn 0.789600 -0.253400 0.558800
vn 0.273700 -0.622800 0.733000
vn -0.666500 -0.518200 0.536000
vn -0.372900 0.895500 -0.243100
vn 0.498300 0.744000 -0.445200
vn 0.810400 0.179600 -0.557600
vn 0.379900 -0.714000 -0.588200
vn -0.225600 0.319900 -0.920200
vn -0.561700 -0.568400 -0.601100
vn 0.308400 -0.682800 0.662300
vn 0.447600 -0.602900 -0.660400
vn 0.540700 0.418800 -0.729500
vn -0.105500 0.596200 0.795900
vn -0.053600 -0.444800 0.894000
vn -0.091500 0.683600 0.724100
usemtl Mat.005
s 1
f 1/1/1 2/2/2 3/3/3
f 1/1/1 4/4/4 2/2/2
f 5/5/5 6/6/6 7/7/7
f 8/8/8 7/7/7 6/6/6
f 9/9/9 6/6/6 10/10/10
f 9/9/9 8/8/8 6/6/6
f 7/11/7 11/12/11 5/12/5
f 7/11/7 12/11/12 11/12/11
f 13/13/13 7/11/7 8/13/8
f 13/13/13 12/11/12 7/11/7
f 8/13/8 14/14/14 13/13/13
f 8/13/8 9/14/9 14/14/14
f 11/15/11 6/16/6 5/17/5
f 11/15/11 15/18/15 6/16/6
f 15/19/15 13/13/13 14/14/14
f 11/12/11 12/11/12 15/19/15
f 13/13/13 15/19/15 12/11/12
f 15/19/15 14/14/14 16/20/16
f 15/21/15 16/22/16 10/23/10
f 16/24/16 14/25/14 9/26/9
f 4/27/4 17/27/17 18/27/18
f 2/28/2 19/28/19 20/28/20
f 2/28/2 18/27/18 19/28/19
f 2/28/2 4/27/4 18/27/18
f 20/29/20 21/1/21 22/3/22
f 20/29/20 17/30/17 21/1/21
f 1/1/1 17/30/17 4/4/4
f 1/1/1 21/1/21 17/30/17
f 20/29/20 3/3/3 2/2/2
f 20/29/20 22/3/22 3/3/3
f 6/31/6 15/21/15 10/23/10
f 10/32/10 16/24/16 9/26/9
