# Blender v2.76 (sub 0) OBJ File: ''
# www.blender.org
mtllib Roll_LeftForeArm.mtl
o LeftForeArm_Arms.000
v 0.760460 0.024312 0.154080
v 0.025027 0.090617 -0.131839
v -0.097352 0.112748 0.114522
v 0.734032 -0.014783 -0.124382
v 0.723778 -0.205232 -0.119210
v 0.743949 -0.205866 0.113736
v -0.107711 -0.079684 0.119748
v 0.014749 -0.100324 -0.126653
vt 0.392625 0.603563
vt 0.388719 0.603563
vt 0.392625 0.595750
vt 0.388719 0.595750
vn 0.086200 0.905100 0.416400
vn 0.116900 0.765400 -0.632800
vn 0.086000 0.607900 0.789300
vn 0.102200 0.633300 -0.767100
vn -0.059300 -0.464000 -0.883900
vn -0.116700 -0.727900 0.675700
vn 0.097200 -0.312400 0.945000
vn -0.063400 -0.784300 -0.617200
usemtl Mat.009
s 1
f 1/1/1 2/2/2 3/2/3
f 1/1/1 4/1/4 2/2/2
f 2/2/2 4/1/4 5/3/5
f 3/2/3 6/3/6 1/1/1
f 3/2/3 7/4/7 6/3/6
f 2/2/2 5/3/5 8/4/8
f 8/4/8 6/3/6 7/4/7
f 8/4/8 5/3/5 6/3/6
