# Blender v2.76 (sub 0) OBJ File: ''
# www.blender.org
mtllib Roll_RightUpLeg.mtl
o RightUpLeg_Legs.001
v -0.586589 -1.160572 0.115937
v 0.089375 -0.156428 0.202456
v -0.274294 0.067629 0.113165
v -0.299560 -1.245427 0.172453
v 0.170642 -0.226066 -0.396038
v -0.449273 -0.917625 -0.283312
v -0.212993 -0.003743 -0.407902
v -0.129074 -1.012660 -0.225618
vt 0.568406 0.748094
vt 0.615281 0.923875
vt 0.552781 0.935594
vt 0.615281 0.748094
vt 0.564500 0.732469
vt 0.572312 0.599656
vt 0.564500 0.744188
vt 0.619187 0.556688
vt 0.638719 0.744188
vt 0.638719 0.732469
vn -0.466700 0.131100 0.874600
vn 0.522900 -0.200400 0.828500
vn -0.930200 0.230500 0.285600
vn 0.238300 -0.034200 0.970600
vn 0.459100 -0.319900 -0.828800
vn -0.814800 0.165900 -0.555500
vn -0.660700 0.068900 -0.747500
vn 0.903500 -0.382100 -0.194100
usemtl Mat.008
s 1
f 1/1/1 2/2/2 3/3/3
f 1/1/1 4/4/4 2/2/2
f 5/5/5 6/6/6 7/7/7
f 6/6/6 1/8/1 3/9/3
f 5/5/5 8/6/8 6/6/6
f 2/10/2 8/6/8 5/5/5
f 2/10/2 4/8/4 8/6/8
f 6/6/6 3/9/3 7/7/7
