# Blender v2.76 (sub 0) OBJ File: ''
# www.blender.org
mtllib Roll_LeftHand.mtl
o LeftHand_Arms.002
v 0.536615 -0.298214 0.214399
v 0.457708 0.055345 0.325287
v 0.289607 -0.406508 0.325287
v -0.035632 0.112951 0.211789
v -0.145555 -0.288355 0.262569
v -0.088631 0.080211 -0.253990
v 0.455263 0.036812 -0.319450
v 0.290169 -0.416783 -0.319450
v -0.146736 -0.295302 -0.243684
v 0.539447 -0.275672 -0.202755
vt 0.642625 0.935594
vt 0.681687 0.916063
vt 0.619187 0.904344
vt 0.673875 0.841844
vt 0.623094 0.841844
vt 0.771531 0.794969
vt 0.763719 0.865281
vt 0.830125 0.857469
vt 0.685594 0.904344
vt 0.759812 0.904344
vt 0.748094 0.841844
vt 0.697312 0.841844
vt 0.763719 0.794969
vt 0.673875 0.853563
vt 0.658250 0.849656
vt 0.638719 0.849656
vt 0.654344 0.853563
vt 0.761100 0.886472
vt 0.773881 0.933597
vt 0.823592 0.932467
vt 0.749223 0.935470
vt 0.759627 0.905547
vt 0.684740 0.906116
vt 0.826219 0.794969
vt 0.806687 0.884813
vt 0.834420 0.891299
vt 0.696523 0.935057
vn 0.773200 -0.568000 0.282000
vn 0.712800 0.421600 0.560500
vn 0.086000 -0.534700 0.840600
vn -0.533900 0.679800 0.502800
vn -0.659200 -0.625200 0.417900
vn -0.464300 0.460900 -0.756300
vn 0.473000 0.645000 -0.600200
vn 0.124200 -0.799500 -0.587600
vn -0.918200 -0.210200 -0.335800
vn 0.941800 -0.183100 -0.281900
usemtl Mat.001
s 1
f 1/1/1 2/2/2 3/3/3
f 3/3/3 2/2/2 4/4/4
f 3/3/3 4/4/4 5/5/5
f 6/6/6 7/7/7 8/8/8
f 8/9/8 3/10/3 5/11/5
f 8/9/8 5/11/5 9/12/9
f 4/13/4 2/7/2 7/7/7
f 4/13/4 7/7/7 6/13/6
f 9/14/9 5/15/5 4/16/4
f 9/14/9 4/16/4 6/17/6
f 2/18/2 1/19/1 10/20/10
f 1/21/1 3/22/3 8/23/8
f 6/6/6 8/8/8 9/24/9
f 10/25/10 8/8/8 7/7/7
f 2/18/2 10/20/10 7/26/7
f 1/21/1 8/23/8 10/27/10
