# Blender v2.76 (sub 0) OBJ File: ''
# www.blender.org
mtllib Roll_RightFoot.mtl
o RightFoot_Head.004
v 0.474706 0.481638 -0.259589
v -0.234855 -0.201598 -0.343831
v 0.064589 0.651887 -0.356578
v 0.157218 -0.376695 -0.270068
v 0.006259 -0.464054 0.899773
v -0.414189 -0.285756 0.802161
v -0.322239 -0.000035 0.806304
v 0.290052 0.157832 0.298546
v -0.125943 0.331981 0.247332
v 0.110651 -0.141959 0.898551
v -0.023275 0.650301 0.246685
v 0.429108 0.464717 0.297848
vt 0.330125 0.736375
vt 0.330125 0.623094
vt 0.500000 0.660094
vt 0.447313 0.669969
vt 0.502000 0.736375
vt 0.447313 0.736375
vt 0.502000 0.669969
vt 0.443406 0.623094
vt 0.443406 0.662156
vt 0.384813 0.697313
vt 0.384813 0.736375
vt 0.502000 0.623094
vt 0.447313 0.666063
vt 0.447313 0.623094
vt 0.502000 0.666063
vt 0.357469 0.736375
vt 0.357469 0.732469
vt 0.365281 0.732469
vt 0.349656 0.736375
vt 0.443406 0.697313
vt 0.443406 0.736375
vn 0.835900 0.273200 -0.476100
vn -0.631100 -0.367200 -0.683300
vn -0.570800 0.641100 -0.513000
vn 0.660000 -0.659000 -0.360700
vn 0.235000 -0.751100 0.616900
vn -0.968500 -0.094900 0.230100
vn -0.246200 0.568900 0.784700
vn 0.755000 0.062600 0.652800
vn -0.840500 0.486600 0.238300
vn 0.480100 0.317100 0.817900
vn -0.133000 0.744400 0.654300
vn 0.689800 0.324400 0.647300
usemtl Mat.005
s 1
f 1/1/1 2/2/2 3/1/3
f 1/1/1 4/2/4 2/2/2
f 5/3/5 6/3/6 2/3/2
f 7/4/7 8/5/8 9/6/9
f 7/4/7 10/7/10 8/5/8
f 6/8/6 7/9/7 9/10/9
f 6/8/6 9/10/9 2/2/2
f 9/10/9 3/1/3 2/2/2
f 9/10/9 11/11/11 3/1/3
f 5/3/5 2/3/2 4/3/4
f 8/10/8 5/8/5 4/2/4
f 5/12/5 7/13/7 6/14/6
f 5/12/5 10/15/10 7/13/7
f 1/16/1 11/17/11 12/18/12
f 1/16/1 3/19/3 11/17/11
f 1/1/1 8/10/8 4/2/4
f 1/1/1 12/11/12 8/10/8
f 8/10/8 10/9/10 5/8/5
f 11/11/11 8/20/8 12/21/12
f 11/11/11 9/10/9 8/20/8
