# Blender v2.76 (sub 0) OBJ File: ''
# www.blender.org
mtllib Roll_LeftArm.mtl
o LeftArm_Arms.000
v 0.422303 0.312643 -0.123882
v 0.421654 0.194605 -0.274231
v -0.030374 0.165188 -0.090455
v -0.180881 -0.076407 -0.151328
v 0.369239 -0.117998 -0.280151
v 0.036567 -0.191822 -0.210717
v 0.462468 -0.070478 0.305277
v 0.015122 -0.223146 0.247485
v 0.732642 0.118436 -0.122554
v 0.430912 -0.095014 -0.158857
v 0.398626 0.178365 -0.123882
v 0.693555 -0.103232 -0.122554
v 0.851115 -0.079190 -0.112182
v 0.847097 0.111985 -0.117368
v 0.431115 0.317645 0.153443
v -0.056659 0.173812 0.135918
v 0.434528 0.204586 0.294770
v -0.182085 -0.073054 0.170699
v 0.435218 -0.090912 0.163910
v 0.798535 0.117970 0.128992
v 0.400813 0.145797 0.153443
v 0.802586 -0.074697 0.134219
vt 0.255906 0.658250
vt 0.224656 0.658250
vt 0.228563 0.767625
vt 0.177781 0.806688
vt 0.154344 0.658250
vt 0.138719 0.763719
vt 0.627819 0.818600
vt 0.698180 0.818600
vt 0.698180 0.773589
vt 0.203857 0.779445
vt 0.149876 0.771963
vt 0.142996 0.657135
vt 0.392625 0.607469
vt 0.396531 0.580125
vt 0.392625 0.576219
vt 0.396531 0.607469
vt 0.388719 0.595750
vt 0.388719 0.603563
vt 0.142625 0.502000
vt 0.166063 0.615281
vt 0.169969 0.502000
vt 0.216844 0.650438
vt 0.255906 0.615281
vt 0.244188 0.502000
vt 0.642625 0.837938
vt 0.681687 0.837938
vt 0.697312 0.818406
vt 0.627000 0.818406
vt 0.392625 0.591844
vt 0.396531 0.591844
vt 0.627819 0.773589
vt 0.247985 0.655705
vn 0.372900 0.895500 -0.243100
vn 0.231600 0.302600 -0.924600
vn -0.498300 0.744000 -0.445200
vn -0.810500 0.179600 -0.557500
vn 0.561500 -0.568900 -0.601000
vn -0.378600 -0.716900 -0.585400
vn 0.672800 -0.513500 0.532500
vn -0.273900 -0.622700 0.733000
vn 0.116300 0.420300 -0.899900
vn 0.096600 -0.698000 -0.709600
vn 0.113800 0.920700 -0.373300
vn 0.065300 -0.736100 -0.673700
vn 0.094300 -0.663200 -0.742500
vn 0.044900 0.644900 -0.762900
vn 0.254400 0.917300 0.306500
vn -0.568600 0.780700 0.259300
vn 0.583800 0.470600 0.661600
vn -0.789600 -0.253400 0.558800
vn 0.048700 -0.445400 0.894000
vn 0.111000 0.728700 0.675800
vn 0.086500 0.676200 0.731700
vn -0.059700 -0.876600 0.477500
usemtl Mat.006
s 1
f 1/1/1 2/2/2 3/3/3
f 4/4/4 3/3/3 2/2/2
f 2/2/2 5/5/5 6/6/6
f 7/7/7 5/8/5 2/9/2
f 8/10/8 6/11/6 5/12/5
f 9/13/9 10/14/10 11/15/11
f 9/13/9 12/16/12 10/14/10
f 13/17/13 9/18/9 14/18/14
f 15/19/15 16/20/16 17/21/17
f 18/22/18 17/21/17 16/20/16
f 8/23/8 7/24/7 17/21/17
f 13/17/13 12/17/12 9/18/9
f 8/23/8 17/21/17 18/22/18
f 16/3/16 15/1/15 1/1/1
f 16/3/16 1/1/1 3/3/3
f 4/4/4 18/4/18 16/3/16
f 4/4/4 16/3/16 3/3/3
f 18/4/18 4/4/4 6/6/6
f 18/4/18 6/6/6 8/6/8
f 1/25/1 15/26/15 17/27/17
f 1/25/1 17/27/17 2/28/2
f 2/2/2 6/6/6 4/4/4
f 19/14/19 20/29/20 21/15/21
f 19/14/19 22/30/22 20/29/20
f 22/30/22 10/14/10 12/16/12
f 22/30/22 19/14/19 10/14/10
f 11/15/11 20/29/20 9/13/9
f 11/15/11 21/15/21 20/29/20
f 22/17/22 12/17/12 13/17/13
f 14/18/14 9/18/9 20/18/20
f 17/31/17 7/7/7 2/9/2
f 7/32/7 8/10/8 5/12/5
