# Blender v2.76 (sub 0) OBJ File: ''
# www.blender.org
mtllib Roll_LeftFoot.mtl
o LeftFoot_Head.002
v -0.291377 0.141568 0.308769
v -0.430297 0.448499 0.308071
v -0.477500 0.464190 -0.295311
v -0.067681 0.635051 -0.346355
v 0.021950 0.634038 0.256909
v 0.124479 0.315672 0.257555
v 0.322312 -0.015845 0.816527
v 0.414120 -0.301611 0.812384
v -0.006044 -0.479817 0.909996
v -0.160444 -0.393575 -0.259844
v -0.110294 -0.157675 0.908774
v 0.304735 -0.194725 -0.316997
vt 0.384813 0.697313
vt 0.384813 0.736375
vt 0.330125 0.736375
vt 0.443406 0.662156
vt 0.443406 0.623094
vt 0.330125 0.623094
vt 0.443406 0.736375
vt 0.443406 0.697313
vt 0.502000 0.669969
vt 0.447313 0.736375
vt 0.502000 0.736375
vt 0.447313 0.669969
vt 0.500000 0.660094
vt 0.502000 0.666063
vt 0.447313 0.623094
vt 0.447313 0.666063
vt 0.502000 0.623094
vt 0.349656 0.736375
vt 0.365281 0.732469
vt 0.357469 0.732469
vt 0.357469 0.736375
vn -0.894000 -0.119400 0.431900
vn -0.874900 0.023600 0.483700
vn -0.805900 0.007000 -0.592000
vn 0.348600 0.857400 -0.378700
vn 0.421200 0.902700 -0.088200
vn 0.774700 0.549900 0.312300
vn 0.476300 0.572700 0.667200
vn 0.852800 -0.295200 0.430800
vn -0.579500 -0.657800 0.481000
vn -0.400700 -0.851700 -0.337800
vn -0.275500 0.405800 0.871500
vn 0.668700 -0.091500 -0.737900
usemtl Mat.008
s 1
f 1/1/1 2/2/2 3/3/3
f 4/3/4 5/2/5 6/1/6
f 6/1/6 7/4/7 8/5/8
f 9/5/9 1/1/1 10/6/10
f 9/5/9 11/4/11 1/1/1
f 6/1/6 2/7/2 1/8/1
f 12/6/12 10/6/10 3/3/3
f 6/1/6 8/5/8 12/6/12
f 11/9/11 6/10/6 1/11/1
f 11/9/11 7/12/7 6/10/6
f 8/13/8 9/13/9 10/13/10
f 8/13/8 10/13/10 12/13/12
f 12/6/12 3/3/3 4/3/4
f 4/3/4 6/1/6 12/6/12
f 11/14/11 8/15/8 7/16/7
f 11/14/11 9/17/9 8/15/8
f 4/18/4 2/19/2 5/20/5
f 4/18/4 3/21/3 2/19/2
f 1/1/1 3/3/3 10/6/10
