# Blender v2.76 (sub 0) OBJ File: ''
# www.blender.org
mtllib Roll_RightLeg.mtl
o RightLeg_Legs.000
v -0.534258 -1.100510 -0.309350
v -0.149475 0.049948 0.113943
v -0.012034 0.341862 -0.206972
v 0.173004 -0.052669 0.159695
v -0.243585 -1.218519 -0.220793
v 0.308165 0.240506 -0.161289
v -0.290317 -1.237393 0.152796
v 0.137680 -0.039040 0.205448
v -0.149350 0.052070 0.159695
v -0.574974 -1.145404 0.106824
vt 0.330125 0.568406
vt 0.513719 0.619188
vt 0.560594 0.568406
vt 0.330125 0.619188
vt 0.521531 0.619188
vt 0.330125 0.560594
vt 0.513719 0.502000
vt 0.513719 0.564500
vt 0.521531 0.502000
vt 0.521531 0.564500
vt 0.330125 0.502000
vn -0.555400 0.241400 -0.795800
vn -0.946800 -0.206300 0.246900
vn -0.220200 0.047600 -0.974300
vn 0.563300 -0.364400 0.741600
vn 0.885700 -0.325000 -0.331500
vn 0.436400 -0.192000 -0.879000
vn 0.569700 -0.227300 0.789800
vn 0.026300 -0.985800 0.166100
vn -0.695400 -0.692200 -0.193000
vn -0.523900 0.183800 0.831700
usemtl Mat.002
s 1
f 1/1/1 2/2/2 3/3/3
f 4/2/4 5/1/5 6/3/6
f 4/2/4 7/4/7 5/1/5
f 6/3/6 1/1/1 3/3/3
f 8/5/8 4/2/4 6/3/6
f 9/5/9 3/3/3 2/2/2
f 10/6/10 4/7/4 2/8/2
f 8/9/8 9/10/9 2/8/2
f 10/6/10 7/11/7 4/7/4
f 8/9/8 2/8/2 4/7/4
f 6/3/6 5/1/5 1/1/1
f 1/1/1 10/4/10 2/2/2
