# Blender v2.76 (sub 0) OBJ File: ''
# www.blender.org
mtllib Roll_LeftLeg.mtl
o LeftLeg_Legs.002
v -0.156496 -0.052419 0.155055
v 0.590790 -1.145378 0.102184
v 0.165844 0.050154 0.109303
v 0.306270 -1.237323 0.148156
v -0.156897 -0.050398 0.200808
v 0.130041 0.040682 0.155055
v 0.546383 -1.095767 -0.272752
v -0.316591 0.193738 -0.160762
v -0.007919 0.330265 -0.211612
v 0.258447 -1.218803 -0.225432
vt 0.513719 0.502000
vt 0.330125 0.560594
vt 0.513719 0.564500
vt 0.330125 0.502000
vt 0.521531 0.502000
vt 0.521531 0.564500
vt 0.513719 0.619188
vt 0.330125 0.619188
vt 0.330125 0.568406
vt 0.560594 0.568406
vt 0.521531 0.619188
vn -0.556500 -0.563700 0.610300
vn 0.525900 0.184300 0.830300
vn 0.910500 -0.114200 0.397500
vn -0.568700 -0.226800 0.790700
vn -0.194300 -0.967800 -0.160300
vn 0.514000 -0.856000 -0.055500
vn 0.554700 0.237800 -0.797400
vn -0.530000 -0.274100 -0.802500
vn 0.216100 -0.012900 -0.976300
vn -0.885300 -0.337200 -0.320200
usemtl Mat.007
s 1
f 1/1/1 2/2/2 3/3/3
f 1/1/1 4/4/4 2/2/2
f 3/3/3 5/5/5 1/1/1
f 3/3/3 6/6/6 5/5/5
f 3/7/3 2/8/2 7/9/7
f 7/9/7 8/10/8 9/10/9
f 7/9/7 10/9/10 8/10/8
f 10/9/10 1/7/1 8/10/8
f 10/9/10 4/8/4 1/7/1
f 3/7/3 7/9/7 9/10/9
f 1/7/1 5/11/5 8/10/8
f 9/10/9 6/11/6 3/7/3
