# Blender v2.76 (sub 0) OBJ File: ''
# www.blender.org
mtllib Roll_LeftUpLeg.mtl
o LeftUpLeg_Legs.004
v -0.082185 -0.152150 0.201608
v 0.593029 -1.156537 0.115120
v 0.281389 0.071877 0.112322
v 0.306092 -1.241360 0.171631
v 0.455071 -0.913797 -0.284106
v 0.146399 -1.043110 -0.216997
v -0.164663 -0.222177 -0.396838
v 0.174117 -0.014320 -0.406927
vt 0.615281 0.923875
vt 0.568406 0.748094
vt 0.552781 0.935594
vt 0.615281 0.748094
vt 0.572312 0.599656
vt 0.564500 0.732469
vt 0.638719 0.744188
vt 0.619187 0.556688
vt 0.564500 0.744188
vt 0.638719 0.732469
vn -0.521100 -0.198700 0.830000
vn 0.341000 0.301500 0.890400
vn 0.936100 0.248300 0.249200
vn -0.119800 -0.078900 0.989700
vn 0.773300 0.251900 -0.581900
vn -0.883200 -0.337100 -0.326100
vn -0.460100 -0.319200 -0.828500
vn 0.621700 0.087900 -0.778300
usemtl Mat.006
s 1
f 1/1/1 2/2/2 3/3/3
f 1/1/1 4/4/4 2/2/2
f 5/5/5 6/5/6 7/6/7
f 3/7/3 2/8/2 5/5/5
f 5/5/5 7/6/7 8/9/8
f 6/5/6 1/10/1 7/6/7
f 6/5/6 4/8/4 1/10/1
f 3/7/3 5/5/5 8/9/8
