# Blender v2.76 (sub 0) OBJ File: ''
# www.blender.org
mtllib Roll_LegArticulation.mtl
o LeftForeArm_Arms.003
v 0.085651 -0.108869 0.106162
v 0.093129 0.101152 -0.131839
v 0.086628 0.094065 0.099548
v 0.082340 -0.102813 -0.124382
v -0.107794 -0.102840 -0.119210
v -0.105757 -0.110939 0.065818
v -0.105486 0.084895 0.056856
v -0.097495 0.098089 -0.126653
vt 0.392625 0.603563
vt 0.388719 0.603563
vt 0.392625 0.595750
vt 0.388719 0.595750
vn 0.892900 -0.046700 0.447900
vn 0.686500 -0.071200 -0.723600
vn 0.661600 0.007400 0.749800
vn 0.694100 -0.062900 -0.717100
vn -0.441600 -0.033500 -0.896600
vn -0.751800 0.029100 0.658800
vn -0.650500 -0.161100 0.742200
vn -0.664400 -0.057100 -0.745100
usemtl Mat.003
s 1
f 1/1/1 2/2/2 3/2/3
f 1/1/1 4/1/4 2/2/2
f 2/2/2 4/1/4 5/3/5
f 3/2/3 6/3/6 1/1/1
f 3/2/3 7/4/7 6/3/6
f 2/2/2 5/3/5 8/4/8
f 8/4/8 6/3/6 7/4/7
f 8/4/8 5/3/5 6/3/6
